<?xml version="1.0" encoding="UTF-8" standalone="no"?>
<!-- Created with Inkscape (http://www.inkscape.org/) -->

<svg
   width="247.16116mm"
   height="35.68018mm"
   viewBox="0 0 247.16116 35.68018"
   version="1.1"
   id="svg1"
   xmlns="http://www.w3.org/2000/svg"
   xmlns:svg="http://www.w3.org/2000/svg">
  <defs
     id="defs1" />
  <g
     id="layer1"
     transform="translate(-37.927264,-71.957765)">
    <path
       id="path312"
       d="m 206.08889,93.086593 c -1.03071,1.546486 -2.75102,2.366798 -4.84773,2.366798 -1.6137,0 -3.1583,-0.597304 -4.18975,-1.658384 -1.08218,-1.118185 -1.70266,-2.812057 -1.70266,-4.657189 0,-1.862891 0.58592,-3.412448 1.59679,-4.603185 1.13732,-1.323448 2.66206,-1.938497 4.31327,-1.938497 0.6918,0 1.40417,0.07573 2.11362,0.280885 0.37347,0.111157 0.92484,0.334164 1.22627,0.334164 0.33598,0 0.63739,-0.223039 0.74399,-0.615049 h 0.35583 l 0.161,4.229675 h -0.41095 c -0.21248,-1.02482 -0.47935,-1.564216 -0.92191,-2.068155 -0.78076,-0.87663 -1.70561,-1.416845 -2.85763,-1.416845 -2.68191,0 -4.26105,2.273433 -4.26105,5.498347 0,2.05041 0.44183,3.502744 1.27773,4.452713 0.78074,0.877418 1.93571,1.341208 3.15903,1.341208 1.59974,0 2.57605,-0.557943 3.90524,-1.880635 l 0.33892,0.334149"
       style="fill:#ffffff;fill-opacity:1;fill-rule:nonzero;stroke:none;stroke-width:0.753215" />
    <path
       id="path313"
       d="m 209.53539,88.631565 c 0.88736,-1.341193 1.3836,-1.751734 2.13052,-1.751734 0.60285,0 0.97631,0.374266 0.97631,0.989315 0,0.52088 -0.26685,0.838056 -0.69179,0.838056 -0.23305,0 -0.42787,-0.094 -0.71238,-0.374282 -0.19556,-0.183724 -0.35288,-0.277043 -0.45949,-0.277043 -0.49698,0 -1.24317,0.931438 -1.24317,1.524886 v 4.196516 c 0,1.061079 0.30142,1.338091 1.5071,1.395212 v 0.2809 h -4.25885 v -0.2809 c 1.13437,-0.223039 1.26081,-0.352664 1.26081,-1.284086 v -4.660307 c 0,-0.819541 -0.16028,-1.118185 -0.60577,-1.118185 -0.21248,0 -0.37054,0.01748 -0.6205,0.07573 V 87.887 c 1.04836,-0.352664 1.68576,-0.615049 2.62826,-1.007059 l 0.089,0.03637 v 1.715474"
       style="fill:#ffffff;fill-opacity:1;fill-rule:nonzero;stroke:none;stroke-width:0.753215" />
    <path
       id="path314"
       d="m 215.21534,84.624803 c -0.49698,0 -0.88735,-0.409755 -0.88735,-0.949182 0,-0.521652 0.41095,-0.949198 0.90793,-0.949198 0.51389,0 0.90426,0.427546 0.90426,0.949198 0,0.539427 -0.39037,0.949182 -0.92484,0.949182 z m -1.98718,10.828478 v -0.2809 c 1.22627,-0.07479 1.40419,-0.240767 1.40419,-1.657613 v -4.228903 c 0,-0.877418 -0.14328,-1.176062 -0.58594,-1.176062 -0.16025,0 -0.42788,0 -0.7462,0.09337 v -0.298645 l 2.75103,-1.024804 0.0719,0.07573 v 6.541682 c 0,1.377484 0.14029,1.581976 1.31229,1.675373 v 0.280884 h -4.2074"
       style="fill:#ffffff;fill-opacity:1;fill-rule:nonzero;stroke:none;stroke-width:0.753215" />
    <path
       id="path315"
       d="m 225.19458,92.526351 c -0.56536,1.157531 -0.92119,1.696958 -1.45564,2.143004 -0.60285,0.521668 -1.27772,0.784036 -2.04159,0.784036 -1.97026,0 -3.37148,-1.733249 -3.37148,-4.138639 0,-1.546455 0.53078,-2.830557 1.49018,-3.668629 0.70944,-0.615049 1.56225,-0.95304 2.39813,-0.95304 1.49019,0 2.73409,0.877434 2.73409,1.920738 0,0.42753 -0.37345,0.780194 -0.83587,0.780194 -0.39038,0 -0.70943,-0.316404 -0.8528,-0.8558 l -0.10675,-0.409786 c -0.17507,-0.690655 -0.40803,-0.892864 -1.04836,-0.892864 -1.4358,0 -2.4121,1.30265 -2.4121,3.241147 0,2.143004 1.11745,3.635471 2.751,3.635471 1.01087,0 1.65121,-0.449116 2.50474,-1.754835 l 0.24629,0.169081"
       style="fill:#ffffff;fill-opacity:1;fill-rule:nonzero;stroke:none;stroke-width:0.753215" />
    <path
       id="path316"
       d="m 230.47019,95.453391 v -0.2809 h 0.33596 c 0.21247,0 0.37348,-0.111157 0.37348,-0.280129 0,-0.09037 -0.0543,-0.240783 -0.19547,-0.428286 l -2.66208,-3.689491 v 3.430193 c 0,0.651324 0.26467,0.910592 0.97631,0.949953 l 0.35363,0.01748 v 0.280916 h -4.15226 v -0.280916 c 1.27774,-0.223039 1.3292,-0.280129 1.3292,-1.247827 v -8.982575 c 0,-0.892848 -0.15819,-1.136701 -0.76386,-1.136701 -0.17506,0 -0.33599,0.01748 -0.56534,0.03936 v -0.298645 l 0.53077,-0.150519 c 1.06528,-0.29866 1.52772,-0.446046 2.22023,-0.669069 l 0.0712,0.03543 v 7.828886 l 2.42974,-2.275764 c 0.24998,-0.241523 0.41098,-0.48229 0.41098,-0.651293 0,-0.241539 -0.19548,-0.316404 -0.88736,-0.334936 v -0.262369 h 3.62071 v 0.280901 c -1.13729,0 -1.6512,0.223007 -3.83319,2.348267 l -0.51757,0.503168 2.71721,3.614625 c 0.72929,0.967714 1.29464,1.301862 2.07615,1.358968 v 0.280901 h -3.86851"
       style="fill:#ffffff;fill-opacity:1;fill-rule:nonzero;stroke:none;stroke-width:0.753215" />
    <path
       id="path317"
       d="m 239.40183,89.508998 c -0.19549,-1.510211 -0.56904,-2.143776 -1.7409,-2.143776 -0.99324,0 -1.68503,0.744691 -1.88059,2.143776 z m 2.14815,2.830574 c -0.69251,2.03191 -1.93571,3.113819 -3.71041,3.113819 -2.09672,0 -3.37444,-1.658384 -3.37444,-4.231989 0,-2.626081 1.43873,-4.528319 3.67585,-4.528319 1.09985,0 1.89823,0.449116 2.46651,1.287173 0.35656,0.521683 0.53447,1.118972 0.60357,2.122174 h -5.46821 c 0.089,1.416845 0.17798,2.143792 0.81824,3.03897 0.49699,0.689867 1.15498,1.024803 1.97028,1.024803 1.18877,0 1.86366,-0.575671 2.73411,-1.956241 l 0.2845,0.129736"
       style="fill:#ffffff;fill-opacity:1;fill-rule:nonzero;stroke:none;stroke-width:0.753215" />
    <path
       id="path318"
       d="m 246.69839,94.036546 c -0.5852,0.967714 -1.26008,1.416845 -2.14743,1.416845 -1.03145,0 -1.56225,-0.80178 -1.56225,-2.366798 V 87.47712 h -0.94247 c -0.0515,-0.03936 -0.0683,-0.07573 -0.0683,-0.129736 0,-0.111945 0.10596,-0.223023 0.30143,-0.355735 0.46239,-0.280144 1.04836,-0.967729 1.72251,-1.992533 0.1036,-0.169097 0.247,-0.337234 0.35361,-0.521683 0.089,0 0.1236,0.05463 0.1236,0.241554 v 2.160749 h 1.79454 v 0.597305 h -1.79454 v 5.329344 c 0,1.190721 0.26687,1.676144 0.92484,1.676144 0.39038,0 0.67488,-0.166027 1.06526,-0.65134 l 0.22936,0.2052"
       style="fill:#ffffff;fill-opacity:1;fill-rule:nonzero;stroke:none;stroke-width:0.753215" />
    <path
       id="path319"
       d="m 262.35832,93.086593 c -1.02776,1.546486 -2.75102,2.366798 -4.84479,2.366798 -1.61664,0 -3.16124,-0.597304 -4.18974,-1.658384 -1.08512,-1.118185 -1.70562,-2.812057 -1.70562,-4.657189 0,-1.862891 0.58595,-3.412448 1.59975,-4.603185 1.13437,-1.323448 2.66206,-1.938497 4.31328,-1.938497 0.69179,0 1.40121,0.07573 2.11359,0.280885 0.37054,0.111157 0.9219,0.334164 1.22333,0.334164 0.33892,0 0.63741,-0.223039 0.744,-0.615049 h 0.35583 l 0.16108,4.229675 h -0.41097 c -0.21246,-1.02482 -0.47638,-1.564216 -0.92191,-2.068155 -0.78075,-0.87663 -1.70264,-1.416845 -2.85761,-1.416845 -2.68191,0 -4.26107,2.273433 -4.26107,5.498347 0,2.05041 0.44479,3.502744 1.27773,4.452713 0.78076,0.877418 1.93574,1.341208 3.162,1.341208 1.59679,0 2.57308,-0.557943 3.90522,-1.880635 l 0.33598,0.334149"
       style="fill:#ffffff;fill-opacity:1;fill-rule:nonzero;stroke:none;stroke-width:0.753215" />
    <path
       id="path320"
       d="m 263.33756,95.453187 v -0.280901 c 1.12042,-0.09337 1.36744,-0.409786 1.36744,-1.434605 V 84.99899 c 0,-0.895162 -0.1786,-1.193822 -0.74399,-1.193822 -0.14327,0 -0.37642,0 -0.658,0.03952 v -0.298645 c 1.22335,-0.316388 1.88132,-0.503136 2.80617,-0.819524 l 0.089,0.07179 v 11.03297 c 0,1.024819 0.19256,1.266358 1.3292,1.341224 v 0.280884 h -4.18977"
       style="fill:#ffffff;fill-opacity:1;fill-rule:nonzero;stroke:none;stroke-width:0.753215" />
    <path
       id="path321"
       d="m 276.42146,94.594536 c -0.90427,0.261598 -1.5424,0.466877 -2.42975,0.840371 l -0.0919,-0.05715 v -1.527955 h -0.0339 c -0.87041,1.247826 -1.88128,1.603592 -2.53928,1.603592 -1.36667,0 -2.16508,-0.952283 -2.16508,-2.387629 v -4.674949 c 0,-0.932225 -0.24996,-1.193822 -1.09983,-1.248614 v -0.262384 h 2.59003 v 6.02003 c 0,0.856572 0.56901,1.471637 1.26082,1.471637 0.51463,0 1.04834,-0.166027 1.49388,-0.576475 0.28082,-0.261597 0.40728,-0.4306 0.40728,-1.081909 V 88.40856 c 0,-0.988559 -0.24996,-1.1367 -1.31523,-1.211566 v -0.317176 h 2.80616 v 6.391226 c 0,0.858887 0.19485,1.064165 1.01087,1.064165 h 0.1058 v 0.259283"
       style="fill:#ffffff;fill-opacity:1;fill-rule:nonzero;stroke:none;stroke-width:0.753215" />
    <path
       id="path322"
       d="m 279.49741,93.886074 c 0,0.596534 0.7984,0.970013 1.72031,0.970013 0.69182,0 1.26009,-0.280129 1.6512,-0.801781 0.42788,-0.557172 0.65725,-1.377468 0.65725,-2.459425 0,-1.118169 -0.24996,-2.200866 -0.69181,-2.851403 -0.37346,-0.557943 -0.94176,-0.874348 -1.58282,-0.874348 -0.93881,0 -1.75413,0.686813 -1.75413,1.470881 z m 0,-5.624902 c 0.37052,-0.953055 1.31229,-1.568089 2.39519,-1.568089 1.89822,0 3.19582,1.791112 3.19582,4.100018 0,2.758037 -1.81221,4.66029 -4.15521,4.66029 -1.4358,0 -2.92967,-0.597304 -2.92967,-1.230082 v -9.504243 c 0,-0.931422 -0.14044,-1.082681 -0.8697,-1.082681 -0.1236,0 -0.21247,0.02188 -0.30143,0.03952 v -0.31642 l 0.53374,-0.169082 c 0.83296,-0.262369 1.29536,-0.373494 2.04232,-0.650553 l 0.089,0.03542 v 5.685866"
       style="fill:#ffffff;fill-opacity:1;fill-rule:nonzero;stroke:none;stroke-width:0.753215" />
    <path
       id="path323"
       d="m 92.639521,93.077791 c -1.084767,1.553556 -2.898268,2.3756 -5.102793,2.3756 -1.701302,0 -3.328175,-0.598753 -4.412942,-1.664083 -1.141421,-1.121429 -1.794615,-2.822717 -1.794615,-4.673438 0,-1.870149 0.61598,-3.421486 1.681307,-4.619008 1.198075,-1.328046 2.805508,-1.944024 4.543468,-1.944024 0.729288,0 1.47746,0.07605 2.226189,0.28216 0.390472,0.110528 0.972013,0.333818 1.288611,0.333818 0.356035,0 0.672634,-0.22329 0.785387,-0.615978 h 0.373254 l 0.169408,4.244081 h -0.429908 c -0.225507,-1.028661 -0.505447,-1.571332 -0.972013,-2.074546 -0.824267,-0.878709 -1.794059,-1.420814 -3.01102,-1.420814 -2.823284,0 -4.48737,2.280062 -4.48737,5.514927 0,2.056786 0.468789,3.514804 1.347488,4.467371 0.822602,0.878709 2.037341,1.34749 3.328174,1.34749 1.681861,0 2.709974,-0.562099 4.111895,-1.889594 l 0.35548,0.336038"
       style="fill:#ffffff;fill-opacity:1;fill-rule:nonzero;stroke:none;stroke-width:0.555437" />
    <path
       id="path324"
       d="m 99.445836,88.123847 c -0.448792,-0.559329 -0.972014,-0.932571 -1.776841,-0.932571 -1.288611,0 -2.167311,1.101983 -2.167311,2.972133 0,1.477462 0.29938,2.822733 0.991453,3.831949 0.409912,0.598769 1.008672,0.934807 1.681306,0.934807 1.384147,0 2.206747,-1.30805 2.206747,-3.477584 0,-1.271396 -0.33659,-2.560568 -0.935354,-3.328734 z m -1.587992,7.329544 c -2.262848,0 -4.040244,-1.85072 -4.040244,-4.447942 0,-2.599442 1.684084,-4.33962 4.207431,-4.33962 2.280069,0 4.037469,1.703524 4.037469,4.282971 0,2.597221 -1.68131,4.504591 -4.204656,4.504591"
       style="fill:#ffffff;fill-opacity:1;fill-rule:nonzero;stroke:none;stroke-width:0.555437" />
    <path
       id="path325"
       d="m 103.01729,95.453313 v -0.27994 c 1.17808,-0.09337 1.4408,-0.412132 1.4408,-1.440793 v -8.767567 c 0,-0.895918 -0.18662,-1.195302 -0.78538,-1.195302 -0.14997,0 -0.3927,0 -0.69208,0.03669 v -0.299385 c 1.29084,-0.316593 1.98069,-0.50545 2.9527,-0.822044 l 0.0955,0.07337 v 11.067624 c 0,1.030897 0.20385,1.271397 1.40137,1.347491 v 0.279939 h -4.41294"
       style="fill:#ffffff;fill-opacity:1;fill-rule:nonzero;stroke:none;stroke-width:0.555437" />
    <path
       id="path326"
       d="m 108.21562,95.453313 v -0.27994 c 1.17808,-0.09337 1.43858,-0.412132 1.43858,-1.440793 v -8.767567 c 0,-0.895918 -0.18663,-1.195302 -0.78539,-1.195302 -0.14941,0 -0.39269,0 -0.68985,0.03669 v -0.299385 c 1.28861,-0.316593 1.98069,-0.50545 2.95271,-0.822044 l 0.0934,0.07337 v 11.067624 c 0,1.030897 0.20607,1.271397 1.40192,1.347491 v 0.279939 h -4.41128"
       style="fill:#ffffff;fill-opacity:1;fill-rule:nonzero;stroke:none;stroke-width:0.555437" />
    <path
       id="path327"
       d="m 115.4124,84.591834 c -0.52266,0 -0.93257,-0.412132 -0.93257,-0.954788 0,-0.522675 0.42936,-0.952016 0.95202,-0.952016 0.54265,0 0.95256,0.429341 0.95256,0.952016 0,0.542656 -0.40991,0.954788 -0.97201,0.954788 z m -2.09344,10.861557 v -0.279939 c 1.29084,-0.07605 1.47747,-0.243271 1.47747,-1.664084 v -4.244081 c 0,-0.878709 -0.15005,-1.178094 -0.61598,-1.178094 -0.1694,0 -0.44934,0 -0.78539,0.09337 v -0.299384 l 2.89605,-1.028661 0.076,0.07605 v 6.561363 c 0,1.38416 0.14989,1.590226 1.38192,1.683529 v 0.279939 h -4.43016"
       style="fill:#ffffff;fill-opacity:1;fill-rule:nonzero;stroke:none;stroke-width:0.555437" />
    <path
       id="path328"
       d="m 123.3968,95.453313 0.02,-0.27994 c 0.93258,-0.07605 1.15809,-0.449337 1.15809,-1.683528 v -3.719202 c 0,-1.327495 -0.44879,-1.889594 -1.3647,-1.889594 -0.6182,0 -1.06533,0.22551 -1.92627,1.06755 v 5.159444 c 0,0.728741 0.26217,0.989236 1.21475,1.06533 v 0.27994 h -3.94414 v -0.27994 c 0.95423,-0.07605 1.1603,-0.375479 1.1603,-1.477462 v -4.543466 c 0,-0.915363 -0.13226,-1.214731 -0.65485,-1.214731 -0.20609,0 -0.41215,0.01937 -0.54267,0.07557 v -0.318813 c 1.02867,-0.299385 1.64465,-0.503231 2.56055,-0.84204 l 0.14941,0.05668 v 1.460253 h 0.0194 c 0.97201,-1.10422 1.83128,-1.516903 2.69275,-1.516903 1.42136,0 2.20675,1.028661 2.20675,2.879382 v 4.133003 c 0,1.009232 0.22329,1.215298 1.13864,1.308601 v 0.279939 h -3.88805"
       style="fill:#ffffff;fill-opacity:1;fill-rule:nonzero;stroke:none;stroke-width:0.555437" />
    <path
       id="path329"
       d="m 130.40918,89.277993 c 0,1.796827 0.76595,3.011574 1.92458,3.011574 0.84206,0 1.38416,-0.654868 1.38416,-1.683529 0,-0.765945 -0.20606,-1.607434 -0.56155,-2.260632 -0.29938,-0.5621 -0.78539,-0.878694 -1.36471,-0.878694 -0.85925,0 -1.38248,0.653183 -1.38248,1.757403 z m 2.93381,6.544138 c -0.91591,0 -2.39115,-0.110527 -3.02713,-0.24327 -0.74817,0.898137 -0.91758,1.178077 -0.91758,1.607985 0,0.822044 1.06755,1.364699 2.71221,1.364699 2.13064,0 3.55146,-0.729276 3.55146,-1.811831 0,-0.692072 -0.61598,-0.917583 -2.31896,-0.917583 z m 1.46024,-7.533375 c 0.25995,0.598754 0.35326,1.028661 0.35326,1.570766 0,0.972011 -0.29938,1.664099 -0.97201,2.167881 -0.59875,0.448785 -1.2886,0.728725 -1.94402,0.728725 -0.11273,0 -0.37326,-0.01716 -0.7093,-0.05605 l -0.35603,-0.03716 c -0.50545,0.149889 -1.12143,0.804835 -1.12143,1.178077 0,0.299385 0.4488,0.449353 1.45802,0.506002 l 2.41227,0.110528 c 1.38247,0.05605 2.26118,0.841488 2.26118,2.000121 0,0.748721 -0.35605,1.364715 -1.12199,1.963469 -0.97202,0.748721 -2.39281,1.198073 -3.73808,1.198073 -1.79461,0 -3.23487,-0.824815 -3.23487,-1.814051 0,-0.692072 0.48601,-1.30805 1.83295,-2.280062 -0.78539,-0.375479 -0.99146,-0.579325 -0.99146,-0.992008 0,-0.372707 0.24329,-0.748185 0.85927,-1.290841 0.28216,-0.242719 0.54265,-0.486006 0.80481,-0.746501 -1.25417,-0.618198 -1.74017,-1.327494 -1.74017,-2.505572 0,-1.701304 1.38471,-3.048794 3.12267,-3.048794 0.486,0 0.99144,0.09337 1.49689,0.28216 l 0.40991,0.150046 c 0.37548,0.129893 0.65542,0.186621 1.02868,0.186621 h 1.44024 v 0.728742 h -1.55079"
       style="fill:#ffffff;fill-opacity:1;fill-rule:nonzero;stroke:none;stroke-width:0.555437" />
    <path
       id="path330"
       d="m 139.77605,93.884831 c 0,0.596533 0.84149,0.972011 1.8135,0.972011 0.7293,0 1.32805,-0.28216 1.73796,-0.805386 0.44935,-0.559313 0.69209,-1.384144 0.69209,-2.466683 0,-1.121979 -0.26218,-2.206754 -0.72874,-2.861606 -0.39269,-0.55988 -0.99146,-0.878709 -1.66408,-0.878709 -0.99146,0 -1.85073,0.692072 -1.85073,1.477462 z m 0,-5.64767 c 0.39271,-0.952583 1.38416,-1.571332 2.52335,-1.571332 2.00014,0 3.36484,1.796843 3.36484,4.114109 0,2.766083 -1.90682,4.673453 -4.37405,4.673453 -1.51414,0 -3.08545,-0.596549 -3.08545,-1.234742 v -9.533513 c 0,-0.935342 -0.14942,-1.084759 -0.91536,-1.084759 -0.1299,0 -0.2233,0.01937 -0.31661,0.03669 v -0.316593 l 0.55988,-0.169413 c 0.87871,-0.259944 1.36471,-0.373258 2.1501,-0.652631 l 0.0934,0.03669 v 5.702114"
       style="fill:#ffffff;fill-opacity:1;fill-rule:nonzero;stroke:none;stroke-width:0.555437" />
    <path
       id="path331"
       d="m 152.4339,88.123847 c -0.44935,-0.559329 -0.97202,-0.932571 -1.77739,-0.932571 -1.28863,0 -2.16732,1.101983 -2.16732,2.972133 0,1.477462 0.29715,2.822733 0.98924,3.831949 0.41268,0.598769 1.01143,0.934807 1.68408,0.934807 1.38414,0 2.20619,-1.30805 2.20619,-3.477584 0,-1.271396 -0.33604,-2.560568 -0.9348,-3.328734 z m -1.59077,7.329544 c -2.26062,0 -4.03747,-1.85072 -4.03747,-4.447942 0,-2.599442 1.68353,-4.33962 4.20688,-4.33962 2.28061,0 4.03801,1.703524 4.03801,4.282971 0,2.597221 -1.68185,4.504591 -4.20742,4.504591"
       style="fill:#ffffff;fill-opacity:1;fill-rule:nonzero;stroke:none;stroke-width:0.555437" />
    <path
       id="path332"
       d="m 164.58629,94.594159 c -0.95257,0.262715 -1.62521,0.468781 -2.56056,0.842039 l -0.0956,-0.05668 V 93.84539 h -0.0367 c -0.91591,1.251968 -1.98068,1.608001 -2.67332,1.608001 -1.43802,0 -2.28006,-0.952582 -2.28006,-2.393375 v -4.690663 c 0,-0.935358 -0.26271,-1.197522 -1.16085,-1.254171 v -0.260511 h 2.73163 v 6.038152 c 0,0.859264 0.59654,1.478013 1.32583,1.478013 0.5421,0 1.1042,-0.169412 1.57076,-0.581544 0.29939,-0.260495 0.42936,-0.429908 0.42936,-1.08309 v -4.31964 c 0,-0.98922 -0.25994,-1.141408 -1.38192,-1.214731 v -0.31716 h 2.95325 v 6.411411 c 0,0.859248 0.20607,1.065314 1.06477,1.065314 h 0.11336 v 0.262731"
       style="fill:#ffffff;fill-opacity:1;fill-rule:nonzero;stroke:none;stroke-width:0.555437" />
    <path
       id="path333"
       d="m 167.95112,88.61042 c 0.93536,-1.345271 1.45802,-1.757954 2.24341,-1.757954 0.63598,0 1.02866,0.375479 1.02866,0.992008 0,0.524895 -0.27994,0.841488 -0.72929,0.841488 -0.24272,0 -0.44879,-0.09337 -0.74595,-0.375478 -0.20662,-0.18607 -0.37546,-0.279389 -0.48601,-0.279389 -0.52543,0 -1.31082,0.934807 -1.31082,1.533561 v 4.206876 c 0,1.06533 0.31882,1.34527 1.59021,1.40192 v 0.279939 h -4.48681 v -0.279939 c 1.19585,-0.225511 1.32582,-0.356034 1.32582,-1.290826 v -4.673437 c 0,-0.822611 -0.16717,-1.121996 -0.63375,-1.121996 -0.2255,0 -0.39269,0.01937 -0.65485,0.07605 v -0.299369 c 1.10198,-0.356034 1.77461,-0.618765 2.76606,-1.011452 l 0.0934,0.03936 v 1.718513"
       style="fill:#ffffff;fill-opacity:1;fill-rule:nonzero;stroke:none;stroke-width:0.555437" />
    <path
       id="path334"
       d="m 176.75811,95.453313 0.0194,-0.27994 c 0.93479,-0.07605 1.15863,-0.449337 1.15863,-1.683528 v -3.719202 c 0,-1.327495 -0.44933,-1.889594 -1.3647,-1.889594 -0.61652,0 -1.06533,0.22551 -1.92459,1.06755 v 5.159444 c 0,0.728741 0.26051,0.989236 1.21253,1.06533 v 0.27994 h -3.94194 v -0.27994 c 0.95258,-0.07605 1.15864,-0.375479 1.15864,-1.477462 v -4.543466 c 0,-0.915363 -0.13272,-1.214731 -0.65541,-1.214731 -0.20607,0 -0.40992,0.01937 -0.54211,0.07557 v -0.318813 c 1.02811,-0.299385 1.64631,-0.503231 2.56222,-0.84204 l 0.14942,0.05668 v 1.460253 h 0.0178 c 0.97201,-1.10422 1.83295,-1.516903 2.6922,-1.516903 1.42136,0 2.20675,1.028661 2.20675,2.879382 v 4.133003 c 0,1.009232 0.22329,1.215298 1.1392,1.308601 v 0.279939 h -3.88806"
       style="fill:#ffffff;fill-opacity:1;fill-rule:nonzero;stroke:none;stroke-width:0.555437" />
    <path
       id="path335"
       d="m 186.59323,89.490782 c -0.20606,-1.514132 -0.59877,-2.150105 -1.83127,-2.150105 -1.04811,0 -1.77685,0.746516 -1.98347,2.150105 z m 2.26284,2.840492 c -0.72928,2.039562 -2.03956,3.122117 -3.90749,3.122117 -2.20674,0 -3.55423,-1.664099 -3.55423,-4.244096 0,-2.636096 1.51688,-4.543466 3.87084,-4.543466 1.16085,0 2.00067,0.449353 2.59944,1.291392 0.37324,0.52266 0.55988,1.121429 0.6354,2.130645 h -5.75819 c 0.0934,1.420813 0.18662,2.150106 0.85925,3.048243 0.52489,0.692072 1.21474,1.02811 2.07623,1.02811 1.25195,0 1.96347,-0.579324 2.87938,-1.963468 l 0.29937,0.130523"
       style="fill:#ffffff;fill-opacity:1;fill-rule:nonzero;stroke:none;stroke-width:0.555437" />
    <path
       id="path336"
       d="m 55.766705,107.51555 c -9.769548,0 -17.717903,-7.947925 -17.717903,-17.717472 0,-9.769979 7.948355,-17.717903 17.717903,-17.717903 9.769979,0 17.717903,7.947924 17.717903,17.717903 0,9.769547 -7.947924,17.717472 -17.717903,17.717472"
       style="fill:#1e3962;fill-opacity:1;fill-rule:nonzero;stroke:none;stroke-width:0.108806" />
    <path
       id="path337"
       d="m 55.766705,71.957769 c -4.764486,0 -9.245104,1.855681 -12.614703,5.225169 -3.369932,3.369599 -5.224738,7.849786 -5.224738,12.61514 0,4.764924 1.854806,9.245103 5.224738,12.614592 3.369599,3.3696 7.850217,5.22528 12.614703,5.22528 4.765792,0 9.245541,-1.85568 12.615029,-5.22528 3.369606,-3.369489 5.226155,-7.849668 5.226155,-12.614592 0,-4.765354 -1.856549,-9.245541 -5.226155,-12.61514 -3.369488,-3.369488 -7.849237,-5.225169 -12.615029,-5.225169 z m 0,0.244812 c 9.717646,0 17.596372,7.877303 17.596372,17.595497 0,9.717214 -7.878726,17.595062 -17.596372,17.595062 -9.71732,0 -17.594629,-7.877848 -17.594629,-17.595062 0,-9.718194 7.877309,-17.595497 17.594629,-17.595497"
       style="fill:#ffffff;fill-opacity:1;fill-rule:nonzero;stroke:none;stroke-width:0.108806" />
    <path
       id="path338"
       d="m 53.151128,100.14821 c -0.04883,-0.13013 -0.09009,-0.262222 -0.128391,-0.395286 -0.02297,0.0031 -0.0468,0.0049 -0.06964,0.0055 -0.337076,-0.0049 -0.602786,-0.297151 -0.941057,-0.298019 0,3.07e-4 0,0.0012 0,0.0012 -0.0068,0 -0.01182,-0.0012 -0.01872,-0.0012 -0.341652,0 -0.608981,0.298456 -0.950744,0.298456 -0.340887,0 -0.608223,-0.298456 -0.949979,-0.298456 -0.341652,0 -0.609425,0.298456 -0.949876,0.298456 -0.07399,0 -0.143618,-0.01582 -0.212059,-0.03744 0.277557,0.211629 0.569924,0.410089 0.878059,0.595499 0.09009,-0.0362 0.183662,-0.0617 0.283876,-0.0617 0.341756,0 0.609092,0.29714 0.949979,0.29714 0.341763,0 0.609092,-0.29714 0.950744,-0.29714 0.341756,0 0.609529,0.29714 0.95118,0.29714 0.0031,0 0.0049,-3.1e-4 0.0086,-3.1e-4 0.0025,0 0.0055,3.1e-4 0.0076,3.1e-4 0.110873,0 0.214233,-0.0319 0.314448,-0.074 l -0.124038,-0.33023"
       style="fill:#ffffff;fill-opacity:1;fill-rule:nonzero;stroke:none;stroke-width:0.108806" />
    <path
       id="path339"
       d="m 53.568068,100.34156 c -0.02211,-0.0379 -0.04255,-0.074 -0.06202,-0.10794 l -0.1582,0.2125 c 0.07311,-0.0344 0.145798,-0.0718 0.220219,-0.10456"
       style="fill:#ffffff;fill-opacity:1;fill-rule:nonzero;stroke:none;stroke-width:0.108806" />
    <path
       id="path340"
       d="m 62.491002,99.758903 c -0.341762,0 -0.609529,-0.29845 -0.950854,-0.29845 -0.341651,0 -0.609418,0.29845 -0.949869,0.29845 -0.341762,0 -0.609535,-0.29845 -0.95118,-0.29845 -0.0064,0 -0.01195,6.16e-4 -0.01737,6.16e-4 0,0 0,-3.08e-4 0,-6.16e-4 -0.338388,6.16e-4 -0.60355,0.293339 -0.941063,0.298019 -0.337403,-0.0049 -0.60267,-0.297151 -0.940953,-0.298019 0,3.08e-4 0,6.16e-4 0,6.16e-4 -0.0055,0 -0.01238,-6.16e-4 -0.01872,-6.16e-4 -0.0031,0 -0.0055,3.08e-4 -0.0085,3.08e-4 0,0 0,-3.08e-4 0,-3.08e-4 -0.339582,6.16e-4 -0.606161,0.295839 -0.945743,0.298019 -0.339582,-0.0025 -0.606044,-0.298019 -0.946501,-0.298019 -0.0012,0 -0.0025,3.08e-4 -0.0049,3.08e-4 -0.0012,0 -0.0025,-3.08e-4 -0.0031,-3.08e-4 -0.201505,0 -0.376577,0.102929 -0.555995,0.187903 0.254608,0.267336 0.561549,0.432724 0.884482,0.605184 0.167448,0.0893 0.337513,0.17985 0.503662,0.28691 0.03916,0.007 0.07867,0.0119 0.118601,0.0119 0.0012,0 0.0025,-3e-4 0.0043,-3e-4 0.0012,0 0.0025,3e-4 0.0031,3e-4 0.341756,0 0.608224,-0.29714 0.94998,-0.29714 0.341651,0 0.610292,0.29714 0.950743,0.29714 0.0031,0 0.0055,-3e-4 0.0089,-3e-4 0.0031,0 0.0055,3e-4 0.0085,3e-4 0.340888,0 0.608224,-0.29714 0.94998,-0.29714 0.341651,0 0.609418,0.29714 0.95118,0.29714 0.340451,0 0.608224,-0.29714 0.949869,-0.29714 0.09912,0 0.191284,0.0259 0.282681,0.0617 0.30683,-0.18497 0.599732,-0.383431 0.875997,-0.594622 -0.06637,0.02124 -0.134703,0.03658 -0.207824,0.03658"
       style="fill:#ffffff;fill-opacity:1;fill-rule:nonzero;stroke:none;stroke-width:0.108806" />
    <path
       id="path341"
       d="m 68.039215,90.54699 c 0.02167,0.01139 0.0399,0.02167 0.05646,0.02925 -0.05018,-0.932462 -0.186167,-2.114421 -0.427493,-3.100958 -0.970768,-3.972281 -3.259928,-6.919824 -5.552572,-7.473535 -0.611598,-0.172565 -1.264427,-0.113046 -1.674514,0.349379 -0.268641,0.302588 -0.403781,0.556322 -0.466674,0.795586 -0.128385,0.365044 -0.14025,0.853903 -0.03405,1.402614 0.03276,-0.05062 0.06419,-0.101193 0.09694,-0.150915 0.199332,-0.443706 0.516828,-0.879371 0.935836,-1.250394 -0.184862,0.276258 -0.328486,0.563175 -0.428805,0.849988 1.536449,1.145075 2.49274,3.485588 2.063067,6.254254 -0.07823,0.500184 -0.219788,0.961409 -0.384194,1.397394 -0.151346,0.611271 -0.539352,1.24495 -1.12374,1.754487 0.470911,-0.692329 0.686345,-1.453968 0.590706,-2.106804 -0.07813,0.03528 -0.157664,0.06593 -0.239264,0.08629 -0.623457,0.1569 -1.283146,-0.04372 -1.854375,-0.351011 -0.572104,-0.306935 -1.337117,-0.733998 -1.90834,-1.042571 0.802002,0.840635 1.398366,1.961437 1.475723,3.152312 0.05942,0.943564 0.04975,1.535686 -0.294971,2.408197 0.314454,-0.05819 0.859347,-0.02297 1.107539,0.207387 0.664799,0.613771 0.463288,2.012031 0.05659,2.65986 0.787538,-0.609529 1.179453,-1.73621 1.076955,-2.963323 0.326417,0.878497 0.350684,1.783435 0.119905,2.523853 0.251124,-6.15e-4 0.502789,0.08193 0.717028,0.322939 0.698752,0.779921 0.935836,2.09407 1.078266,3.194965 0.608224,-0.465904 1.16324,-1.072386 1.613806,-1.805952 0.06931,-0.112616 0.133391,-0.226536 0.195521,-0.340888 0.0165,-0.03011 0.0319,-0.06084 0.04797,-0.09097 0.965214,-1.844146 1.03028,-3.917871 0.274189,-5.430485 1.022553,0.836066 1.470071,2.264899 1.294569,3.767831 0.0012,6.16e-4 0.0012,0.0012 0.0025,0.0018 0.447081,-0.840738 0.733129,-1.84044 0.787531,-2.925455 0.117726,-2.316363 -0.841939,-4.369196 -2.319738,-5.352365 1.472251,0.21217 2.657147,1.500323 3.117504,3.227286"
       style="fill:#e3c20e;fill-opacity:1;fill-rule:nonzero;stroke:none;stroke-width:0.108806" />
    <path
       id="path342"
       d="m 57.393239,83.098485 c 0.05997,0.01361 0.140687,0.08236 0.163212,0.142313 -0.207386,0.0055 -0.408024,0.125017 -0.612467,0.09097 -0.195963,-0.03233 -0.375271,-0.177245 -0.388436,-0.386368 0.280932,0.03996 0.560564,0.09096 0.837691,0.153089"
       style="fill:#1e3962;fill-opacity:1;fill-rule:nonzero;stroke:none;stroke-width:0.108806" />
    <path
       id="path343"
       d="m 57.020036,83.337749 c 0.178551,0 0.354927,-0.09227 0.536415,-0.09695 -0.02254,-0.05997 -0.103256,-0.128717 -0.163212,-0.142313 -0.277127,-0.06213 -0.556759,-0.113157 -0.837691,-0.153089 0.01318,0.209123 0.192473,0.354053 0.388436,0.386368 0.02636,0.0043 0.05148,0.0062 0.07605,0.0062 m -6.889572,-3.429549 c 0.405955,0 0.787975,0.129259 1.06347,0.438269 0.26853,0.302588 0.403344,0.556322 0.465356,0.795586 0.129592,0.365149 0.141556,0.85391 0.03479,1.402615 -0.01053,-0.01736 -0.02297,-0.03534 -0.0335,-0.0532 -0.198131,-0.464495 -0.523674,-0.923109 -0.961839,-1.311108 0.17376,0.259614 0.311073,0.529124 0.410961,0.798523 -1.547871,1.139521 -2.51439,3.488637 -2.082217,6.268725 0.08248,0.534672 0.239375,1.024732 0.416619,1.487158 0.166581,0.584394 0.5474,1.183695 1.104596,1.669402 -0.471347,-0.691461 -0.685581,-1.452663 -0.591253,-2.105061 0.07443,0.03233 0.149172,0.06071 0.225341,0.07986 0.20988,0.05277 0.415634,0.0791 0.619209,0.0791 0.403781,0 0.795265,-0.102923 1.17521,-0.306935 0.572098,-0.307267 1.245715,-0.849993 1.284778,-1.496843 l -0.435221,0.147867 c -0.15429,-0.762076 -0.10663,-1.389013 0.170933,-2.11104 l -0.403781,-0.07062 c 0.14493,-0.466231 0.376577,-1.136905 0.879372,-1.517293 l -0.385064,-0.133114 c 0.322939,-0.646844 1.019185,-1.037897 1.603579,-1.237229 -0.782421,-0.371023 -1.440367,-1.020484 -1.836531,-1.824998 0.733136,0.569056 1.593025,0.998403 2.479576,1.216343 -0.660452,-0.503225 -1.16542,-1.135174 -1.535138,-1.901924 0.762507,0.960534 1.927053,1.405983 2.975504,1.992126 0.216851,0.1211 0.488866,0.119358 0.683518,0.277453 0.09477,0.07736 0.162338,0.186161 0.227399,0.293339 0.103262,0.168649 0.306836,0.220545 0.467868,0.329355 0.254602,0.173433 0.341756,0.312815 0.643913,0.317926 0.06127,0.0012 0.363406,0.0234 0.421182,0.04372 0.09913,0.03522 0.119906,0.1569 0.153526,0.248623 0.04243,0.115657 -0.142424,0.739115 -0.251227,0.994154 -0.05148,0.113483 -0.170066,0.175502 -0.286486,0.202269 -0.04329,0.0098 -0.08792,0.01404 -0.133397,0.01404 -0.07312,0 -0.148409,-0.01096 -0.220225,-0.02635 -0.02254,-0.0049 -0.03146,-0.0068 -0.03571,-0.0085 -0.0043,-3.08e-4 -0.0064,-3.08e-4 -0.01318,-0.0012 -0.203137,-0.02124 -0.258844,-0.101513 -0.417814,-0.101513 -0.02808,0 -0.05862,0.0025 -0.09347,0.0081 -0.21424,0.03393 -0.408886,0.145798 -0.592116,0.266899 -0.182688,0.1211 -0.362107,0.248617 -0.560133,0.342193 -0.108804,0.05179 -0.211302,0.07137 -0.304762,0.07137 -0.235895,0 -0.423362,-0.125774 -0.567861,-0.183224 0,0 0.479833,-0.07268 0.534241,-0.229036 0.05437,-0.1569 0.03916,-0.347741 -0.06964,-0.469278 -0.0816,-0.09172 -0.2002,-0.129586 -0.320863,-0.129586 -0.05997,0 -0.119906,0.0094 -0.176377,0.02543 -0.337076,0.09738 -0.601912,0.429347 -0.636296,0.797328 -0.02001,0.210865 0.03147,0.42423 0.113053,0.617577 0.0816,0.193784 0.194652,0.370592 0.30683,0.546205 0.726824,1.136473 1.788545,1.774407 2.38611,2.99216 0.426299,0.869131 0.66132,1.872651 0.563612,2.853536 -0.08846,0.875122 -0.56916,1.699217 -1.010699,2.355094 0.116427,0.09608 0.198027,0.171691 0.198027,0.171691 l -0.19041,0.243075 c 0.169523,0.0668 0.341325,0.09433 0.482006,0.09433 0.01829,0 0.03688,-3.08e-4 0.05517,-0.0012 0.138188,-0.0064 0.191721,-0.06975 0.209129,-0.15222 0.02254,-0.103694 0.0043,-0.201832 -0.0556,-0.292361 -0.05659,-0.09009 -0.0914,-0.160274 -0.114352,-0.238069 -0.05868,-0.189535 0.025,-0.357858 0.16658,-0.357858 0.0064,0 0.01404,3.08e-4 0.02297,0.0018 0.05646,-0.0952 0.143625,-0.146672 0.235889,-0.146672 0.02851,0 0.05646,0.0049 0.08367,0.01404 -0.10195,0.09097 -0.124906,0.27757 -0.09553,0.45862 0.02168,0.150041 0.06071,0.369391 0.04113,0.55719 0.170933,-0.205317 0.141555,-0.60017 0.239805,-0.786663 0.04754,-0.09608 0.136771,-0.154721 0.235889,-0.154721 0.05351,0 0.10881,0.01743 0.163212,0.05603 0.025,-0.0072 0.04883,-0.01053 0.07388,-0.01053 0.126217,0 0.246985,0.08748 0.269946,0.20227 -0.02087,-0.0031 -0.04039,-0.0049 -0.05997,-0.0049 -0.180619,0 -0.309879,0.139813 -0.38082,0.394421 -0.05529,0.189535 -0.117295,0.377445 -0.255476,0.514321 0.08672,-0.0043 0.18573,-0.02765 0.290291,-0.208685 0.06975,-0.126648 0.14373,-0.179856 0.226536,-0.179856 0.04255,0 0.08672,0.01361 0.134807,0.03916 0.07518,-0.04883 0.14493,-0.06931 0.206949,-0.06931 0.113921,0 0.19759,0.07018 0.229473,0.152978 -0.025,-0.0062 -0.04797,-0.0089 -0.06888,-0.0089 -0.07181,0 -0.118483,0.03362 -0.142313,0.06974 -0.0914,0.122843 -0.03362,0.253297 -0.150047,0.391373 -0.239264,0.293776 -0.871748,0.01404 -1.316766,0.674158 -0.153409,0.227404 -0.242632,0.607793 -0.06202,0.68765 -0.03276,0.02211 -0.06844,0.0319 -0.106624,0.0319 -0.08672,0 -0.178119,-0.05178 -0.229584,-0.127523 -0.01318,0.0025 -0.02592,0.0031 -0.03904,0.0031 -0.126217,0 -0.216308,-0.112615 -0.213371,-0.220114 0.0055,-0.274084 0.262225,-0.345998 0.342956,-0.51857 0.0532,-0.12828 0.0012,-0.205637 -0.10663,-0.221413 -0.306073,-0.04464 -0.550884,-0.132966 -0.7043,-0.199338 l -0.166149,0.185736 c -0.07181,0.09313 -0.144924,0.191709 -0.207811,0.262219 0.198021,0.260157 0.40247,0.683956 0.40247,0.683956 l -0.342631,0.196284 c 0.02383,0.304761 0.166254,0.604412 0.281807,0.780352 0.06289,0.09814 0.127085,0.133507 0.189215,0.133507 0.02284,0 0.04581,-0.0049 0.06833,-0.01281 0.105867,-0.03775 0.182793,-0.113379 0.228703,-0.225662 0.04797,-0.108373 0.08922,-0.183994 0.145805,-0.251997 0.07399,-0.09183 0.16658,-0.138182 0.249054,-0.138182 0.07606,0 0.143625,0.03959 0.178551,0.119032 0.153415,0.0018 0.269835,0.09858 0.304656,0.242748 -0.02722,-0.0094 -0.05646,-0.01404 -0.08585,-0.01404 -0.123274,0 -0.262225,0.07736 -0.378646,0.185293 -0.121969,0.108804 -0.294971,0.27539 -0.473521,0.365481 0.02512,0.0049 0.05148,0.0064 0.07736,0.0064 0.263093,0 0.560238,-0.215982 0.763813,-0.225662 0.0063,-3.08e-4 0.01318,-3.08e-4 0.01946,-3.08e-4 0.167449,0 0.309005,0.133828 0.300519,0.341646 0.126218,0.124585 0.134703,0.34731 0.02937,0.455245 -0.06844,-0.167885 -0.198138,-0.24906 -0.377451,-0.24906 -0.06887,0 -0.144924,0.01188 -0.227836,0.03528 -0.134702,0.03701 -0.272015,0.07051 -0.408891,0.07051 -0.06627,0 -0.131766,-0.0076 -0.198027,-0.02635 0.05437,0.08422 0.131759,0.168323 0.350247,0.168323 0.0012,0 0.0031,0 0.0055,0 0.0055,-3.08e-4 0.01188,-3.08e-4 0.01736,-3.08e-4 0.219683,0 0.302588,0.09901 0.317927,0.279737 0.249817,0.132092 0.265162,0.361239 0.179313,0.483208 -0.04125,-0.128391 -0.117288,-0.170386 -0.177244,-0.175066 -0.01188,-0.0018 -0.02297,-0.0025 -0.03276,-0.0025 -0.124043,0 -0.20358,0.08672 -0.340456,0.08672 -0.01946,0 -0.04033,-0.0025 -0.06332,-0.0064 -0.401164,-0.06876 -0.51889,-0.86152 -1.367683,-0.921796 -0.01958,-0.0012 -0.04125,-0.0025 -0.06203,-0.0025 -0.282674,0 -0.618882,0.128828 -0.587435,0.340019 -0.126218,-0.06376 -0.163212,-0.254608 -0.110005,-0.391047 -0.107609,-0.13046 -0.06084,-0.312816 0.04667,-0.377778 0.0668,-0.04125 0.130891,-0.05616 0.191709,-0.05616 0.15897,0 0.304768,0.09814 0.443713,0.09814 0.0089,0 0.01736,-3.14e-4 0.02635,-0.0012 0.145799,-0.02211 0.175176,-0.114789 0.136008,-0.235889 -0.04667,-0.151353 -0.141451,-0.362975 -0.246881,-0.560675 -0.187472,0.08465 -0.427604,0.246991 -0.539788,0.253407 0.01096,-0.14711 0.08922,-0.669916 -0.04341,-0.922345 -0.03054,0.02383 -0.09901,0.08922 -0.242638,0.239695 -0.374397,0.392359 -0.681339,0.874254 -0.794391,1.418717 -0.113046,0.544468 -0.0098,1.154755 0.346005,1.566695 0.552947,0.640862 1.332868,0.750972 1.933364,1.342222 0.445018,0.43816 0.716159,0.69865 0.736615,1.3418 0.01958,0.64303 -0.212934,1.0689 -0.629874,1.53688 -0.42891,0.4807 -0.84194,0.68765 -1.338416,1.08881 -0.652835,0.52836 -1.201109,0.91473 -1.599336,1.40218 0.09259,-0.75479 0.216308,-1.29033 0.622257,-1.91944 0.393984,-0.6128 0.870442,-1.06423 1.032786,-1.80585 l 0.143625,0.81768 c 0.402469,-0.20478 0.713653,-0.65664 0.713653,-0.98176 0,0 0.02839,-0.35492 -0.168754,-0.60778 -0.223161,-0.34895 -0.601376,-0.45176 -0.999708,-0.4645 l 0.106735,0.61628 c -0.858583,-0.42206 -1.610426,-1.37247 -2.043473,-2.262829 l -0.182799,0.245249 c -0.323475,-0.862395 -0.417808,-1.828477 -0.203569,-2.728304 l -0.294977,0.09869 c 0.07943,-1.066837 0.467105,-2.043589 1.035724,-2.928391 l -0.470911,0.0055 c 0.339576,-0.705932 0.993286,-1.301422 1.183696,-1.46496 0.293665,-0.252971 0.105866,-0.541957 -0.02808,-0.610398 -0.04464,-0.02297 -0.09684,-0.03393 -0.155484,-0.03393 -0.873928,0 -3.109886,2.48468 -2.950917,3.746501 -0.595059,-0.641295 -0.879365,-1.633712 -0.791017,-2.701861 -0.288554,0.779052 -0.339582,1.578117 -0.187472,2.265772 -0.0097,-0.0055 -0.01952,-0.01188 -0.02795,-0.01786 -0.255914,0.117289 -0.522376,0.310309 -0.776978,0.594185 -0.701689,0.7846 -0.93671,2.108977 -1.080446,3.213573 -0.551642,-0.419446 -1.059984,-0.955423 -1.487589,-1.596288 -0.23709,-0.40976 -0.459808,-0.823763 -0.65914,-1.237661 -0.697447,-1.687356 -0.680039,-3.492878 -0.0025,-4.84827 -1.023858,0.83726 -1.470945,2.268384 -1.294568,3.773816 -0.448393,-0.841612 -0.735741,-1.842952 -0.790149,-2.929697 -0.117726,-2.31637 0.841176,-4.369203 2.318543,-5.352372 -1.473124,0.212171 -2.660194,1.504239 -3.119239,3.234903 -0.01108,0.0062 -0.02297,0.01275 -0.03276,0.01693 0.04883,-0.932031 0.186161,-2.114421 0.42673,-3.100958 0.971636,-3.971844 3.259496,-6.919387 5.552024,-7.473098 0.203581,-0.05745 0.410203,-0.08933 0.612472,-0.08933"
       style="fill:#e3c20e;fill-opacity:1;fill-rule:nonzero;stroke:none;stroke-width:0.108806" />
    <path
       id="path344"
       d="m 45.623955,101.94002 c -0.149173,0.059 -0.22653,0.0791 -0.314448,0.0753 -0.09989,-0.002 -0.187035,-0.0353 -0.261024,-0.0999 -0.191715,-0.16658 -0.188236,-0.44545 0.0055,-0.66774 0.123717,-0.14276 0.279201,-0.21674 0.440338,-0.2138 0.117732,0.004 0.227404,0.0443 0.30901,0.11479 0.14493,0.12578 0.19509,0.31194 0.110873,0.40845 -0.03436,0.0395 -0.09858,0.0408 -0.144493,0.002 -0.03701,-0.0328 -0.04329,-0.0893 -0.01318,-0.15091 l 0.02167,-0.0472 c 0.03947,-0.0785 0.03276,-0.11686 -0.02925,-0.17126 -0.139056,-0.12154 -0.339256,-0.0833 -0.49474,0.0961 -0.173003,0.19846 -0.184099,0.43097 -0.02512,0.56861 0.09781,0.0855 0.19552,0.0983 0.383861,0.0494 l 0.01096,0.0365"
       style="fill:#ffffff;fill-opacity:1;fill-rule:nonzero;stroke:none;stroke-width:0.108806" />
    <path
       id="path345"
       d="m 45.872141,102.6082 c -0.0556,-0.0433 -0.06409,-0.12067 -0.02081,-0.17638 0.04329,-0.0557 0.124148,-0.0655 0.179314,-0.0217 0.05234,0.0408 0.06127,0.12578 0.01872,0.17974 -0.04126,0.0523 -0.122843,0.0608 -0.177245,0.0183"
       style="fill:#ffffff;fill-opacity:1;fill-rule:nonzero;stroke:none;stroke-width:0.108806" />
    <path
       id="path346"
       d="m 46.531392,103.22284 0.02297,-0.0332 c 0.169628,0.10032 0.24688,0.0845 0.327285,-0.037 l 0.661758,-0.99459 c 0.05018,-0.0748 0.05222,-0.12153 0.0063,-0.15254 -0.02297,-0.0145 -0.06757,-0.0285 -0.117295,-0.0395 l -0.07518,-0.0179 0.02081,-0.031 0.53086,0.0625 0.01533,0.0199 -0.879366,1.32188 c -0.0642,0.0952 -0.0455,0.16451 0.119789,0.27451 l -0.02167,0.0336 -0.611598,-0.40672"
       style="fill:#ffffff;fill-opacity:1;fill-rule:nonzero;stroke:none;stroke-width:0.108806" />
    <path
       id="path347"
       d="m 49.064501,102.74464 c -0.158101,-0.0829 -0.304768,-0.0484 -0.380826,0.0974 -0.07649,0.14613 -0.04594,0.29998 0.09695,0.53119 0.209991,-0.0101 0.323043,-0.0774 0.399095,-0.22348 0.08498,-0.16235 0.04594,-0.32131 -0.11522,-0.40509 z m -0.494309,0.74978 c -0.19759,0.0404 -0.297908,0.11087 -0.378209,0.26385 -0.113483,0.21685 -0.05702,0.40258 0.121538,0.49605 0.153415,0.0799 0.314558,0.0297 0.395289,-0.12372 0.07606,-0.14579 0.05529,-0.27712 -0.04809,-0.46916 z m -0.316627,0.81212 c -0.266462,-0.13938 -0.367649,-0.39899 -0.251123,-0.62052 0.08498,-0.16277 0.18693,-0.22609 0.532067,-0.27114 -0.138077,-0.32728 -0.141562,-0.4424 -0.06071,-0.59538 0.118484,-0.22664 0.387125,-0.26527 0.649344,-0.12882 0.232959,0.1224 0.315433,0.36036 0.219788,0.54446 -0.0927,0.17637 -0.217608,0.21336 -0.515516,0.2163 0.187799,0.3447 0.196721,0.51128 0.09901,0.70006 -0.127523,0.24264 -0.389742,0.30345 -0.672859,0.15504"
       style="fill:#ffffff;fill-opacity:1;fill-rule:nonzero;stroke:none;stroke-width:0.108806" />
    <path
       id="path348"
       d="m 50.473421,103.59931 -0.929087,0.61333 0.59299,0.23502 z m -0.205643,1.08305 -0.163206,0.4127 -0.19259,-0.0762 0.163212,-0.41314 -0.693204,-0.27365 0.06332,-0.15852 1.212205,-0.79352 0.108804,0.0433 -0.435221,1.10047 0.254608,0.10064 -0.06332,0.15853 -0.254608,-0.10065"
       style="fill:#ffffff;fill-opacity:1;fill-rule:nonzero;stroke:none;stroke-width:0.108806" />
    <path
       id="path349"
       d="m 51.858622,103.85271 c -0.172128,-0.0481 -0.308136,0.0161 -0.352747,0.17464 -0.04458,0.15896 0.01743,0.30302 0.205644,0.49942 0.20238,-0.054 0.299213,-0.14319 0.343935,-0.30183 0.04883,-0.1767 -0.02297,-0.32381 -0.196832,-0.37223 z m -0.327723,0.83596 c -0.184855,0.0807 -0.267767,0.17093 -0.314441,0.33751 -0.06507,0.23546 0.02839,0.40498 0.222288,0.45938 0.166142,0.0464 0.31401,-0.0369 0.359926,-0.20314 0.04464,-0.15897 -0.0031,-0.28257 -0.14493,-0.44926 z m -0.14025,0.86065 c -0.289423,-0.0807 -0.442832,-0.31358 -0.375265,-0.55458 0.04883,-0.17637 0.136001,-0.26015 0.463293,-0.37571 -0.203143,-0.29116 -0.229578,-0.40334 -0.182793,-0.57003 0.06887,-0.24601 0.323475,-0.34045 0.608224,-0.26091 0.253734,0.0705 0.382889,0.28648 0.327723,0.48625 -0.05363,0.1916 -0.167454,0.25417 -0.458183,0.31912 0.255803,0.29759 0.299214,0.45905 0.242632,0.66393 -0.07398,0.26353 -0.317926,0.37778 -0.625631,0.29193"
       style="fill:#ffffff;fill-opacity:1;fill-rule:nonzero;stroke:none;stroke-width:0.108806" />
    <path
       id="path350"
       d="m 59.443572,104.83023 c -0.06757,-0.17464 -0.131759,-0.23927 -0.278869,-0.20488 -0.124038,0.0294 -0.19041,0.13861 -0.176371,0.31118 z m 0.348074,0.27495 c -0.03054,0.26265 -0.155595,0.42848 -0.377883,0.48027 -0.263093,0.0617 -0.470042,-0.099 -0.54142,-0.40585 -0.07312,-0.31369 0.05308,-0.58276 0.333597,-0.64816 0.138619,-0.0328 0.250366,-0.002 0.34513,0.0807 0.05998,0.0519 0.09901,0.11773 0.136008,0.23589 l -0.685581,0.16071 c 0.05105,0.16658 0.08161,0.25025 0.187036,0.33871 0.0816,0.0676 0.173439,0.0884 0.27539,0.0642 0.149172,-0.0349 0.217607,-0.12372 0.288659,-0.31369 l 0.03904,0.007"
       style="fill:#ffffff;fill-opacity:1;fill-rule:nonzero;stroke:none;stroke-width:0.108806" />
    <path
       id="path351"
       d="m 60.594515,104.66789 c 0.166587,0.0408 0.237201,0.0832 0.276265,0.20738 0.0468,0.1458 -0.05222,0.31619 -0.217614,0.36896 -0.0455,0.0143 -0.109678,0.0323 -0.165275,0.0305 -0.05788,-0.001 -0.08247,0.005 -0.106741,0.0123 -0.02592,0.008 -0.03787,0.0167 -0.04329,0.0425 l -0.02937,0.009 -0.107935,-0.34176 0.03479,-0.011 c 0.113052,0.19672 0.223162,0.2669 0.374514,0.21925 0.110873,-0.0352 0.157658,-0.12916 0.129148,-0.21848 -0.02167,-0.0676 -0.08247,-0.11045 -0.167448,-0.12665 l -0.138077,-0.0279 c -0.21217,-0.043 -0.326417,-0.12198 -0.361343,-0.23296 -0.05437,-0.17213 0.03701,-0.30683 0.215545,-0.36341 0.05222,-0.0166 0.101082,-0.0292 0.153415,-0.0221 0.02722,0.003 0.05105,0.002 0.06626,-0.002 0.0089,-0.002 0.01742,-0.008 0.02851,-0.0328 l 0.02383,-0.008 0.104567,0.29291 -0.03276,0.0102 c -0.112178,-0.18029 -0.2002,-0.23122 -0.33066,-0.19009 -0.09357,0.0298 -0.149173,0.0978 -0.116532,0.20021 0.01533,0.0481 0.06768,0.10075 0.140362,0.11816 l 0.269835,0.0655"
       style="fill:#ffffff;fill-opacity:1;fill-rule:nonzero;stroke:none;stroke-width:0.108806" />
    <path
       id="path352"
       d="m 61.825002,104.63427 c -0.02722,0.13818 -0.08802,0.22065 -0.194652,0.26179 -0.122843,0.0485 -0.223162,-0.0183 -0.292908,-0.19716 l -0.249055,-0.64054 -0.113046,0.0438 c -0.0076,-0.002 -0.01188,-0.005 -0.01404,-0.0115 -0.0055,-0.0128 0.0031,-0.0305 0.02044,-0.0544 0.04243,-0.0535 0.0828,-0.15983 0.117726,-0.30814 0.0055,-0.0243 0.01527,-0.0502 0.01946,-0.076 0.0098,-0.004 0.01743,3.1e-4 0.02512,0.0217 l 0.09684,0.247 0.21424,-0.0838 0.02722,0.068 -0.21544,0.0838 0.23709,0.60854 c 0.05363,0.13644 0.106741,0.17942 0.184967,0.14885 0.04667,-0.0183 0.07388,-0.0511 0.09901,-0.12458 l 0.03701,0.0127"
       style="fill:#ffffff;fill-opacity:1;fill-rule:nonzero;stroke:none;stroke-width:0.108806" />
    <path
       id="path353"
       d="m 62.393183,104.57649 c -0.06419,0.0289 -0.137202,0.002 -0.165274,-0.0629 -0.0298,-0.0646 -0.0012,-0.13982 0.06289,-0.1692 0.06071,-0.0272 0.14025,0.004 0.16876,0.0667 0.02722,0.0604 -0.0037,0.13688 -0.06637,0.16539"
       style="fill:#ffffff;fill-opacity:1;fill-rule:nonzero;stroke:none;stroke-width:0.108806" />
    <path
       id="path354"
       d="m 63.242845,104.27597 -0.01958,-0.0348 c 0.167448,-0.10412 0.189104,-0.17974 0.118594,-0.30813 l -0.576777,-1.04519 c -0.04329,-0.0794 -0.08367,-0.10282 -0.131766,-0.0756 -0.02371,0.0127 -0.05646,0.0464 -0.09009,0.0854 l -0.05018,0.0579 -0.01736,-0.0323 0.300525,-0.44164 0.02383,-0.005 0.765888,1.3902 c 0.0556,0.0999 0.125343,0.11653 0.300408,0.02 l 0.01829,0.0348 -0.64174,0.35406"
       style="fill:#ffffff;fill-opacity:1;fill-rule:nonzero;stroke:none;stroke-width:0.108806" />
    <path
       id="path355"
       d="m 64.628815,102.18571 c -0.255476,-0.36635 -0.484075,-0.48539 -0.673179,-0.35319 -0.0655,0.0455 -0.104568,0.11142 -0.108047,0.1853 -0.0025,0.0893 0.05437,0.24057 0.136008,0.3583 0.181925,0.25928 0.400407,0.35024 0.563613,0.23589 0.09608,-0.0667 0.222287,-0.22566 0.141555,-0.34122 z m -0.06507,1.32862 c 0.290291,-0.28986 0.375376,-0.6894 0.213365,-1.10753 -0.03054,0.15678 -0.112178,0.26266 -0.240569,0.35231 -0.235021,0.16408 -0.515953,0.0968 -0.700815,-0.16875 -0.205748,-0.29454 -0.165275,-0.65034 0.09477,-0.83096 0.139376,-0.0973 0.299213,-0.11859 0.456871,-0.0731 0.163212,0.0481 0.32566,0.16876 0.45394,0.35199 0.173871,0.25079 0.253297,0.54914 0.189209,0.83008 -0.06844,0.29704 -0.172996,0.44795 -0.429778,0.68515 l -0.03701,-0.0392"
       style="fill:#ffffff;fill-opacity:1;fill-rule:nonzero;stroke:none;stroke-width:0.108806" />
    <path
       id="path356"
       d="m 65.694348,101.61915 c -0.03479,0.1989 -0.0055,0.31793 0.107498,0.44883 0.159838,0.18497 0.352858,0.20063 0.506274,0.068 0.130459,-0.11305 0.142319,-0.28181 0.02925,-0.41227 -0.107936,-0.12447 -0.238389,-0.15298 -0.454698,-0.12708 z m -0.515959,-0.73487 c -0.134697,0.11697 -0.157658,0.26614 -0.04883,0.39061 0.107936,0.12459 0.262226,0.15266 0.529993,0.10413 0.06626,-0.19889 0.0455,-0.32849 -0.06213,-0.45307 -0.120663,-0.1385 -0.283001,-0.15983 -0.419009,-0.0417 z m 1.155623,1.32743 c -0.227404,0.19672 -0.505725,0.19542 -0.668937,0.006 -0.121205,-0.13851 -0.14155,-0.25667 -0.05788,-0.59419 -0.354816,0.009 -0.46362,-0.031 -0.576673,-0.1619 -0.166684,-0.19292 -0.104561,-0.45775 0.11849,-0.65109 0.199332,-0.17214 0.450566,-0.16201 0.586574,-0.005 0.130454,0.1508 0.1199,0.28006 0.01318,0.55882 0.389305,-0.0493 0.548268,0.004 0.68765,0.16452 0.179418,0.20706 0.13905,0.47395 -0.102388,0.68264"
       style="fill:#ffffff;fill-opacity:1;fill-rule:nonzero;stroke:none;stroke-width:0.108806" />
    <path
       id="path357"
       d="m 66.49385,99.885551 0.228605,1.088929 0.436089,-0.46503 z m 0.931593,0.589069 0.323043,0.3039 -0.141556,0.15124 -0.324237,-0.30389 -0.509211,0.54283 -0.124148,-0.11653 -0.291492,-1.418284 0.08074,-0.08541 0.862826,0.809624 0.186931,-0.19966 0.124142,0.11642 -0.187035,0.19977"
       style="fill:#ffffff;fill-opacity:1;fill-rule:nonzero;stroke:none;stroke-width:0.108806" />
    <path
       id="path358"
       d="m 40.937694,89.499733 c 0.226536,0.148304 0.352316,0.404544 0.361238,0.720402 0.0076,0.243512 -0.0705,0.478964 -0.218919,0.638802 -0.155478,0.168316 -0.395616,0.268961 -0.66132,0.277126 -0.266462,0.0081 -0.491693,-0.07312 -0.668063,-0.220661 -0.194652,-0.165706 -0.290298,-0.393117 -0.298019,-0.641734 -0.0031,-0.104561 0.0043,-0.212065 0.03023,-0.320106 0.01447,-0.05646 0.04464,-0.140687 0.04243,-0.186056 -0.0012,-0.05062 -0.03479,-0.09531 -0.09129,-0.109678 l -0.0025,-0.05351 0.606919,-0.04255 0.0025,0.06158 c -0.14711,0.03658 -0.223162,0.07911 -0.292909,0.148415 -0.122843,0.121538 -0.195957,0.263093 -0.190409,0.436853 0.01194,0.404212 0.346004,0.632485 0.808424,0.618452 0.294977,-0.0089 0.501489,-0.08204 0.634559,-0.21206 0.121532,-0.121648 0.18355,-0.298019 0.178113,-0.48245 -0.0077,-0.241 -0.09227,-0.385493 -0.288228,-0.580582 l 0.0468,-0.05222"
       style="fill:#ffffff;fill-opacity:1;fill-rule:nonzero;stroke:none;stroke-width:0.108806" />
    <path
       id="path359"
       d="m 39.793062,87.815749 c -0.08922,0.08759 -0.145799,0.189104 -0.158964,0.314558 -0.01527,0.143625 0.02937,0.283001 0.138182,0.399422 0.117732,0.128391 0.36896,0.224904 0.622694,0.251234 0.316627,0.03362 0.564376,-0.01872 0.730956,-0.165275 0.0914,-0.0816 0.141556,-0.195089 0.154289,-0.317495 0.01447,-0.133065 -0.01404,-0.254602 -0.09216,-0.357101 -0.125453,-0.161032 -0.367654,-0.262219 -0.68776,-0.295728 -0.303456,-0.0319 -0.563502,0.0319 -0.707237,0.170385 z m 1.581928,0.495178 c -0.05443,0.516821 -0.464494,0.831274 -1.018316,0.773061 -0.540651,-0.0569 -0.873817,-0.447081 -0.818215,-0.966519 0.05437,-0.521834 0.483312,-0.829643 1.00993,-0.774373 0.549142,0.05788 0.881003,0.456551 0.826601,0.967831"
       style="fill:#ffffff;fill-opacity:1;fill-rule:nonzero;stroke:none;stroke-width:0.108806" />
    <path
       id="path360"
       d="m 41.824245,85.767159 -0.341215,1.399566 -0.04938,-0.01188 c 0.03615,-0.195089 0.0037,-0.238937 -0.194659,-0.287354 L 40.117426,86.59417 c -0.200201,-0.04883 -0.241875,-0.03393 -0.306936,0.164948 l -0.05006,-0.01182 0.179744,-0.736615 0.04975,0.01195 c -0.03904,0.216739 -0.01275,0.256234 0.187467,0.305088 l 1.20742,0.294103 c 0.09825,0.02426 0.127517,-0.01564 0.174308,-0.205207 l 0.04329,-0.182362 c 0.05234,-0.210865 0.03916,-0.362537 -0.05105,-0.478632 -0.03615,-0.04464 -0.08498,-0.09216 -0.165275,-0.155921 l 0.01607,-0.06757 0.422063,0.235021"
       style="fill:#ffffff;fill-opacity:1;fill-rule:nonzero;stroke:none;stroke-width:0.108806" />
    <path
       id="path361"
       d="m 42.433774,84.079363 -0.512585,1.346908 -0.04766,-0.01786 c 0.06084,-0.189104 0.03233,-0.237195 -0.15679,-0.309441 l -1.079571,-0.410524 c -0.192473,-0.07355 -0.23589,-0.06419 -0.326418,0.124912 l -0.0468,-0.01786 0.269946,-0.708542 0.0468,0.01792 c -0.06506,0.210317 -0.0447,0.252866 0.149172,0.325981 l 1.161178,0.44197 c 0.09553,0.03658 0.129148,3.08e-4 0.198895,-0.182362 l 0.06626,-0.175065 c 0.07736,-0.202707 0.08378,-0.355358 0.0089,-0.481138 -0.03054,-0.04883 -0.07312,-0.102388 -0.145798,-0.17594 l 0.02512,-0.06507 0.389304,0.286049"
       style="fill:#ffffff;fill-opacity:1;fill-rule:nonzero;stroke:none;stroke-width:0.108806" />
    <path
       id="path362"
       d="m 42.603291,83.726179 -0.0455,-0.02254 c 0.09358,-0.20488 0.08041,-0.250359 -0.10663,-0.343825 l -1.052368,-0.526186 c -0.189104,-0.09477 -0.221856,-0.07562 -0.336208,0.121974 l -0.0455,-0.02297 0.355795,-0.71148 0.04594,0.02297 c -0.0914,0.205748 -0.07954,0.253727 0.103256,0.34513 l 1.051049,0.526185 c 0.180619,0.08966 0.235021,0.06931 0.340451,-0.123274 l 0.04594,0.02254 -0.356232,0.71148"
       style="fill:#ffffff;fill-opacity:1;fill-rule:nonzero;stroke:none;stroke-width:0.108806" />
    <path
       id="path363"
       d="m 42.620809,80.285639 c -0.0468,0.0914 -0.06084,0.129154 -0.0553,0.174634 0.01053,0.06724 0.04551,0.122079 0.223162,0.236326 l 1.164977,0.752717 -0.02599,0.04039 -1.876025,0.194658 0.873817,0.563612 c 0.231647,0.149604 0.292902,0.138619 0.429784,-0.01872 l 0.04243,0.02722 -0.340451,0.526618 -0.04243,-0.02765 c 0.09901,-0.197152 0.08705,-0.252866 -0.153416,-0.408454 l -0.989911,-0.639234 c -0.140688,0.0149 -0.189542,0.03104 -0.260156,0.141119 l -0.04243,-0.02765 0.246875,-0.382014 1.647426,-0.167128 -0.765007,-0.493866 c -0.115226,-0.07389 -0.188347,-0.108373 -0.248297,-0.09945 -0.06714,0.01065 -0.09771,0.04852 -0.173002,0.139813 l -0.04329,-0.02752 0.345137,-0.53304 0.04212,0.02765"
       style="fill:#ffffff;fill-opacity:1;fill-rule:nonzero;stroke:none;stroke-width:0.108806" />
    <path
       id="path364"
       d="m 44.724239,79.065386 c -0.0914,0.126217 -0.0927,0.167885 0.03904,0.281806 l 0.404649,0.350678 c -0.0049,0.19041 -0.122843,0.428368 -0.303462,0.636623 -0.178551,0.206622 -0.434021,0.346435 -0.689824,0.359169 -0.217614,0.0098 -0.421188,-0.07051 -0.619326,-0.242312 -0.222614,-0.192909 -0.338271,-0.435221 -0.344693,-0.677859 -0.0063,-0.217608 0.07529,-0.438159 0.244812,-0.634116 0.09488,-0.109247 0.170933,-0.164518 0.279737,-0.229147 0.04754,-0.02635 0.0803,-0.05092 0.09771,-0.07138 0.03701,-0.04255 0.04039,-0.103693 0.01195,-0.148736 l 0.03818,-0.04464 0.441644,0.353622 -0.03996,0.04637 c -0.167892,-0.05616 -0.248297,-0.06931 -0.35917,-0.05948 -0.14025,0.01404 -0.269947,0.08585 -0.367655,0.198895 -0.1211,0.139813 -0.16658,0.294971 -0.153415,0.459051 0.01404,0.200089 0.156359,0.40835 0.356559,0.581783 0.376571,0.325981 0.788837,0.308136 1.064227,-0.0098 0.134807,-0.155484 0.17637,-0.318259 0.109678,-0.37614 L 44.617419,79.56482 c -0.157658,-0.136876 -0.191709,-0.13046 -0.341646,0.01872 l -0.03701,-0.03146 0.449255,-0.518133 0.03614,0.03146"
       style="fill:#ffffff;fill-opacity:1;fill-rule:nonzero;stroke:none;stroke-width:0.108806" />
    <path
       id="path365"
       d="m 45.825466,78.98128 c 0.05948,0.06843 0.110873,0.06245 0.203138,-0.01872 0.169954,-0.148298 0.232952,-0.218045 0.253734,-0.374508 0.01065,-0.08835 -0.02297,-0.180182 -0.09901,-0.266468 -0.08378,-0.09683 -0.177245,-0.146556 -0.283111,-0.132954 -0.191278,0.02543 -0.26092,0.100208 -0.505732,0.300409 z m -0.316627,-0.734872 c 0.203138,-0.178551 0.230342,-0.347748 0.08367,-0.514765 -0.147867,-0.16908 -0.354921,-0.169517 -0.59549,0.04039 l -0.08237,0.07225 c -0.03405,0.03023 -0.03276,0.06041 0.0085,0.107172 l 0.400296,0.457315 z m 0.264288,-0.166587 c 0.152221,-0.09444 0.238069,-0.105866 0.342631,-0.104561 0.115115,0.0025 0.223919,0.05647 0.301282,0.145361 0.195958,0.223488 0.125454,0.524445 -0.167454,0.780247 l -0.678728,0.595059 -0.03405,-0.03818 c 0.155595,-0.143736 0.162448,-0.205749 0.02722,-0.35917 l -0.77013,-0.88067 c -0.140682,-0.159401 -0.186161,-0.150916 -0.358295,-0.01829 l -0.0335,-0.03818 0.564807,-0.493983 c 0.348073,-0.305088 0.635427,-0.339576 0.822463,-0.12578 0.07181,0.08248 0.112178,0.193458 0.101082,0.281812 -0.01182,0.08454 -0.03775,0.136439 -0.119364,0.254171 l 0.0025,0.0025"
       style="fill:#ffffff;fill-opacity:1;fill-rule:nonzero;stroke:none;stroke-width:0.108806" />
    <path
       id="path366"
       d="m 47.163445,76.24286 c -0.125016,-0.01361 -0.239374,0.0072 -0.343935,0.07693 -0.120664,0.07943 -0.200096,0.2027 -0.220551,0.360795 -0.02297,0.173002 0.06203,0.428042 0.202275,0.640108 0.175176,0.265593 0.373196,0.423793 0.592116,0.459051 0.121537,0.01872 0.241443,-0.0149 0.343394,-0.08291 0.112178,-0.07399 0.18834,-0.172565 0.217613,-0.297908 0.04458,-0.199332 -0.03233,-0.450997 -0.210003,-0.71877 -0.167448,-0.254608 -0.382882,-0.414335 -0.580909,-0.43729 z m 0.624763,1.535574 c -0.433152,0.286917 -0.936815,0.170386 -1.244957,-0.293671 -0.299213,-0.453497 -0.209886,-0.958903 0.225336,-1.247014 0.437296,-0.289429 0.947806,-0.154727 1.239298,0.287243 0.304768,0.45992 0.208691,0.969998 -0.219677,1.253442"
       style="fill:#ffffff;fill-opacity:1;fill-rule:nonzero;stroke:none;stroke-width:0.108806" />
    <path
       id="path367"
       d="m 49.671413,74.7791 c -0.193784,0.115116 -0.19041,0.184856 -0.0816,0.414767 l 0.291597,0.618014 c 0.110984,0.235015 0.150478,0.37614 0.100319,0.550774 -0.0468,0.164511 -0.182793,0.302692 -0.405955,0.408017 -0.177134,0.08379 -0.329792,0.111421 -0.464488,0.08335 -0.180619,-0.03658 -0.32348,-0.176371 -0.445018,-0.433159 l -0.353615,-0.750974 c -0.07736,-0.162338 -0.116427,-0.176371 -0.314559,-0.10075 l -0.02167,-0.04594 0.68515,-0.32337 0.0221,0.04594 c -0.186167,0.108373 -0.199332,0.150048 -0.113483,0.331529 l 0.357094,0.756097 c 0.08922,0.188667 0.149936,0.293228 0.291492,0.341645 0.103256,0.03491 0.224467,0.02808 0.362544,-0.03688 0.154284,-0.07355 0.265267,-0.190841 0.300082,-0.317169 0.03479,-0.134703 -0.0025,-0.236216 -0.09433,-0.432174 l -0.300519,-0.63717 c -0.1186,-0.249492 -0.175071,-0.287681 -0.376577,-0.20738 l -0.02167,-0.04594 0.561433,-0.265157 0.02167,0.04594"
       style="fill:#ffffff;fill-opacity:1;fill-rule:nonzero;stroke:none;stroke-width:0.108806" />
    <path
       id="path368"
       d="m 50.833459,75.229987 c 0.243943,-0.08161 0.327723,-0.127086 0.425431,-0.227842 0.07605,-0.07986 0.09477,-0.209122 0.05437,-0.336534 -0.07182,-0.230446 -0.257977,-0.295839 -0.574166,-0.197263 -0.08715,0.02722 -0.125343,0.05862 -0.09695,0.148304 z m 1.025163,0.642607 -0.854341,-0.597559 -0.141444,0.04969 0.154609,0.496045 c 0.05997,0.194215 0.09989,0.215434 0.301394,0.167011 l 0.01533,0.0484 -0.70648,0.220218 -0.01478,-0.04895 c 0.186931,-0.07518 0.204443,-0.110873 0.133397,-0.336104 l -0.339145,-1.091862 c -0.05997,-0.189209 -0.08922,-0.213365 -0.291603,-0.167559 l -0.01435,-0.0484 0.695267,-0.216746 c 0.242749,-0.07562 0.442949,-0.07094 0.581026,-0.01576 0.105866,0.04298 0.186161,0.155152 0.220982,0.267767 0.06975,0.222293 -0.02722,0.415745 -0.331855,0.563612 l 0.712674,0.487561 c 0.103367,0.07137 0.162011,0.07007 0.277564,0.04501 l 0.01533,0.04883 -0.413571,0.128717"
       style="fill:#ffffff;fill-opacity:1;fill-rule:nonzero;stroke:none;stroke-width:0.108806" />
    <path
       id="path369"
       d="m 54.02364,73.693544 c -0.09771,0.02679 -0.136772,0.04169 -0.16658,0.07606 -0.04212,0.0532 -0.05954,0.115657 -0.02457,0.32478 l 0.223919,1.368994 -0.04797,0.0076 -1.403483,-1.259747 0.16876,1.025601 c 0.04464,0.272015 0.09433,0.309767 0.30215,0.305525 l 0.0089,0.05061 -0.619209,0.101193 -0.0076,-0.05018 c 0.212503,-0.05905 0.246012,-0.10543 0.199332,-0.388541 L 52.466885,74.09263 c -0.105873,-0.0939 -0.150047,-0.119469 -0.279743,-0.09771 l -0.0076,-0.05018 0.448393,-0.07399 1.229175,1.109275 -0.146673,-0.898515 c -0.02167,-0.134702 -0.04581,-0.212503 -0.09259,-0.250692 -0.05308,-0.04298 -0.101187,-0.04039 -0.219787,-0.03491 l -0.0085,-0.05006 0.626506,-0.102499 0.0076,0.05018"
       style="fill:#ffffff;fill-opacity:1;fill-rule:nonzero;stroke:none;stroke-width:0.108806" />
    <path
       id="path370"
       d="m 55.968974,75.337922 -1.442546,0.04298 -0.0012,-0.05105 c 0.205644,-0.01915 0.232084,-0.05486 0.225231,-0.260914 l -0.03485,-1.167156 c -0.0049,-0.19759 -0.03916,-0.237195 -0.240132,-0.241875 l -0.0012,-0.05049 1.417848,-0.04255 0.02254,0.382562 -0.06714,0.0025 c -0.0468,-0.239695 -0.110115,-0.278001 -0.419883,-0.269072 l -0.350678,0.01065 c -0.07475,0.0025 -0.09346,0.01361 -0.0914,0.09901 l 0.01737,0.588643 0.404649,-0.01188 c 0.229904,-0.0068 0.269072,-0.05351 0.294103,-0.265593 l 0.06213,-0.0025 0.01829,0.626505 -0.06084,0.0018 c -0.03904,-0.22403 -0.08073,-0.257656 -0.31031,-0.250796 l -0.404538,0.01232 0.01946,0.650335 c 0.0037,0.112172 0.07616,0.1236 0.274189,0.117726 l 0.09564,-0.0031 c 0.382888,-0.01139 0.496372,-0.08411 0.608224,-0.371897 l 0.07519,-0.0025 -0.110116,0.456003"
       style="fill:#ffffff;fill-opacity:1;fill-rule:nonzero;stroke:none;stroke-width:0.108806" />
    <path
       id="path371"
       d="m 59.768684,75.57686 c -0.2002,0.182688 -0.479833,0.241326 -0.788843,0.172565 -0.237195,-0.05277 -0.446206,-0.187036 -0.564807,-0.370266 -0.124148,-0.192041 -0.163206,-0.450455 -0.105436,-0.709306 0.05862,-0.261892 0.19259,-0.459482 0.379515,-0.593747 0.209128,-0.148415 0.452635,-0.184536 0.695377,-0.130134 0.102388,0.02254 0.20488,0.05659 0.302588,0.108373 0.05234,0.02808 0.126217,0.07736 0.170829,0.08715 0.04895,0.01152 0.101187,-0.01022 0.128391,-0.06158 l 0.05234,0.01139 -0.108804,0.598864 -0.05997,-0.01318 c 0.0012,-0.150915 -0.02168,-0.235452 -0.07181,-0.320433 -0.08715,-0.148735 -0.206622,-0.254602 -0.376577,-0.292902 -0.394852,-0.08792 -0.698314,0.179419 -0.799501,0.631611 -0.06332,0.287791 -0.04372,0.506162 0.04969,0.666868 0.08715,0.148741 0.242743,0.251997 0.423362,0.29204 0.235021,0.05265 0.396053,0.0062 0.634554,-0.136008 l 0.03904,0.05862"
       style="fill:#ffffff;fill-opacity:1;fill-rule:nonzero;stroke:none;stroke-width:0.108806" />
    <path
       id="path372"
       d="m 60.767518,75.261864 c 0.243512,0.08422 0.337409,0.09901 0.476458,0.07911 0.10881,-0.01706 0.202276,-0.108046 0.249492,-0.233826 0.08248,-0.225662 -0.02426,-0.391048 -0.336208,-0.506163 -0.08497,-0.03146 -0.133939,-0.0298 -0.16658,0.05819 z m 0.419883,1.134842 -0.311073,-0.995022 -0.14243,-0.04667 -0.18062,0.487013 c -0.07093,0.191284 -0.05148,0.232521 0.136883,0.31619 l -0.01736,0.04809 -0.692767,-0.256344 0.01743,-0.04754 c 0.193347,0.05437 0.229474,0.03615 0.311073,-0.184861 l 0.396164,-1.072817 c 0.06843,-0.18573 0.05954,-0.223488 -0.128822,-0.309774 l 0.01872,-0.04766 0.683408,0.251991 c 0.238069,0.08846 0.393553,0.214677 0.470147,0.34263 0.05733,0.09815 0.05179,0.236321 0.01053,0.346763 -0.08029,0.218482 -0.274078,0.312052 -0.606044,0.244048 l 0.267773,0.821053 c 0.03818,0.1199 0.08497,0.154283 0.192473,0.205311 l -0.01829,0.04766 -0.407149,-0.150047"
       style="fill:#ffffff;fill-opacity:1;fill-rule:nonzero;stroke:none;stroke-width:0.108806" />
    <path
       id="path373"
       d="m 61.807484,76.665347 0.02297,-0.0455 c 0.204442,0.09216 0.250359,0.07856 0.343061,-0.108477 l 0.519765,-1.054 c 0.09347,-0.189541 0.07518,-0.223161 -0.124149,-0.335777 l 0.02297,-0.0455 0.712791,0.351879 -0.02168,0.0455 c -0.206942,-0.09009 -0.254602,-0.07768 -0.34513,0.104999 l -0.519764,1.053673 c -0.08933,0.180182 -0.06887,0.235021 0.124912,0.339582 l -0.02297,0.0455 -0.712785,-0.351879"
       style="fill:#ffffff;fill-opacity:1;fill-rule:nonzero;stroke:none;stroke-width:0.108806" />
    <path
       id="path374"
       d="m 64.324485,77.753404 c -0.25036,0.104894 -0.533366,0.06583 -0.800702,-0.10293 -0.205755,-0.129585 -0.35699,-0.326848 -0.40715,-0.538914 -0.05234,-0.222725 -0.0012,-0.478959 0.140251,-0.703426 0.142756,-0.226099 0.336208,-0.367217 0.557196,-0.430548 0.246117,-0.06931 0.488318,-0.02081 0.698746,0.111858 0.08792,0.0556 0.173002,0.122406 0.247749,0.204012 0.03904,0.04372 0.09271,0.115115 0.13046,0.139813 0.04384,0.02722 0.09901,0.02414 0.142861,-0.0149 l 0.04464,0.02851 -0.303456,0.526944 -0.05234,-0.03264 c 0.05105,-0.141987 0.05862,-0.229147 0.04125,-0.325981 -0.03263,-0.16919 -0.108804,-0.30901 -0.256671,-0.402149 -0.341756,-0.215865 -0.717027,-0.06669 -0.965213,0.325223 -0.156901,0.249061 -0.212066,0.46112 -0.178551,0.643913 0.03276,0.16908 0.14373,0.31869 0.300519,0.417272 0.203138,0.128822 0.371029,0.139487 0.643039,0.08595 l 0.01743,0.068"
       style="fill:#ffffff;fill-opacity:1;fill-rule:nonzero;stroke:none;stroke-width:0.108806" />
    <path
       id="path375"
       d="m 65.204724,78.85332 0.03276,-0.03904 0.05646,0.04464 c 0.06084,0.04797 0.103367,0.05178 0.127086,0.0234 0.0468,-0.0553 0.03405,-0.280612 0.01318,-0.584825 l -0.02722,-0.383437 -0.08922,-0.0018 -0.320001,0.379188 c -0.132634,0.157658 -0.11522,0.203574 0.02414,0.341651 l -0.03263,0.03916 -0.578082,-0.486686 0.03276,-0.03861 c 0.16876,0.127843 0.219676,0.118163 0.370154,-0.06041 l 0.731067,-0.868707 c 0.127523,-0.151346 0.130454,-0.201074 -0.02297,-0.347741 l 0.03276,-0.03861 0.57754,0.486255 -0.0322,0.03861 c -0.179855,-0.130453 -0.215544,-0.118157 -0.348615,0.03953 l -0.344693,0.40976 0.647392,-0.02894 c 0.176376,-0.0094 0.288117,-0.01693 0.33066,-0.06844 0.03479,-0.04082 0.03615,-0.07475 -0.03023,-0.133828 l -0.04926,-0.0455 0.03276,-0.03861 0.529992,0.446644 -0.03276,0.03861 c -0.147867,-0.10663 -0.203575,-0.11892 -0.45894,-0.102818 l -0.687761,0.04384 0.03701,0.92822 c 0.01318,0.329354 0.0383,0.413134 0.131765,0.492129 l -0.03276,0.03916 -0.620077,-0.522813"
       style="fill:#ffffff;fill-opacity:1;fill-rule:nonzero;stroke:none;stroke-width:0.108806" />
    <path
       id="path376"
       d="m 66.920586,80.578436 -0.971636,-1.067164 0.03701,-0.03448 c 0.149172,0.143735 0.192478,0.139924 0.344693,0.0012 l 0.864027,-0.785795 c 0.14711,-0.133508 0.154289,-0.184535 0.02722,-0.340019 l 0.0383,-0.03448 0.954986,1.049862 -0.276258,0.26603 -0.04464,-0.04969 c 0.151242,-0.192152 0.139383,-0.264836 -0.06974,-0.494303 l -0.235889,-0.259719 c -0.05135,-0.0553 -0.07182,-0.06202 -0.13514,-0.0043 l -0.435221,0.397033 0.272009,0.298782 c 0.154727,0.170392 0.215551,0.169086 0.393991,0.05049 l 0.04126,0.0455 -0.463293,0.422057 -0.04169,-0.0455 c 0.14493,-0.175065 0.143729,-0.228162 -0.01182,-0.398664 l -0.272009,-0.299214 -0.480707,0.43827 c -0.08367,0.07561 -0.04458,0.138076 0.08803,0.284743 l 0.06539,0.07137 c 0.257545,0.283549 0.387242,0.321307 0.67797,0.219793 l 0.05092,0.05517 -0.417703,0.213371"
       style="fill:#ffffff;fill-opacity:1;fill-rule:nonzero;stroke:none;stroke-width:0.108806" />
    <path
       id="path377"
       d="m 69.083534,81.304823 c 0.205638,-0.218045 0.205638,-0.302588 0.04113,-0.534235 l -0.09129,-0.129259 -1.113192,0.786768 c -0.165274,0.117295 -0.170391,0.166586 -0.05179,0.352316 l -0.04169,0.02937 -0.451434,-0.638359 0.04125,-0.0298 c 0.139382,0.17387 0.180619,0.18105 0.373203,0.04501 l 1.085904,-0.767949 -0.09216,-0.131328 c -0.163206,-0.231641 -0.244812,-0.263094 -0.515953,-0.136876 l -0.03787,-0.05234 0.382888,-0.247317 0.86838,1.228744 -0.360475,0.277994 -0.03688,-0.05277"
       style="fill:#ffffff;fill-opacity:1;fill-rule:nonzero;stroke:none;stroke-width:0.108806" />
    <path
       id="path378"
       d="m 69.873572,85.328126 c -0.263525,-0.06594 -0.4658,-0.266899 -0.577978,-0.56187 -0.08672,-0.227842 -0.09009,-0.476027 -0.0025,-0.67536 0.0914,-0.20999 0.286049,-0.384298 0.533471,-0.478632 0.249818,-0.09521 0.489623,-0.09183 0.703758,-0.01022 0.2385,0.0927 0.403775,0.276252 0.491797,0.508773 0.03701,0.09782 0.06539,0.201943 0.07606,0.311941 0.0043,0.05868 0.0043,0.147547 0.02081,0.189979 0.01829,0.04766 0.0642,0.07866 0.122843,0.07355 l 0.01872,0.05018 -0.559259,0.238937 -0.0218,-0.05745 c 0.126322,-0.08247 0.183667,-0.14743 0.227404,-0.235889 0.07605,-0.155158 0.09901,-0.312816 0.03701,-0.47559 -0.143625,-0.377445 -0.533367,-0.484076 -0.966519,-0.319127 -0.274953,0.104887 -0.447081,0.24177 -0.529561,0.408023 -0.07518,0.15461 -0.07605,0.341214 -0.0098,0.51378 0.08465,0.225335 0.212934,0.334139 0.461231,0.454371 l -0.02599,0.06463"
       style="fill:#ffffff;fill-opacity:1;fill-rule:nonzero;stroke:none;stroke-width:0.108806" />
    <path
       id="path379"
       d="m 70.006205,87.102964 -0.334034,-1.401746 0.04883,-0.01139 c 0.05647,0.189973 0.10663,0.21424 0.304768,0.16658 l 1.122871,-0.268204 c 0.2002,-0.04797 0.230779,-0.07986 0.198027,-0.286806 l 0.05018,-0.01195 0.175176,0.737052 -0.04895,0.01182 c -0.06408,-0.210428 -0.105756,-0.233716 -0.305962,-0.18573 l -1.20872,0.288992 c -0.09912,0.0234 -0.106735,0.07224 -0.06084,0.262219 l 0.04329,0.182355 c 0.05018,0.211303 0.130571,0.340457 0.263531,0.402476 0.0532,0.02297 0.118594,0.04341 0.219787,0.06332 l 0.01613,0.06767 -0.484082,-0.01663"
       style="fill:#ffffff;fill-opacity:1;fill-rule:nonzero;stroke:none;stroke-width:0.108806" />
    <path
       id="path380"
       d="m 71.980049,89.064511 c -0.0447,-0.22153 -0.112289,-0.241437 -0.364717,-0.215107 l -0.678734,0.0705 c -0.258845,0.02722 -0.40508,0.01786 -0.552948,-0.08748 -0.14025,-0.09858 -0.225335,-0.272883 -0.251234,-0.517695 -0.01958,-0.194652 0.0043,-0.347637 0.07606,-0.465363 0.09357,-0.158199 0.273322,-0.246554 0.555128,-0.276258 l 0.825831,-0.08595 c 0.17844,-0.0186 0.204449,-0.05049 0.198901,-0.263094 l 0.05018,-0.0049 0.07823,0.753481 -0.04969,0.0055 c -0.04169,-0.211191 -0.0766,-0.237194 -0.276689,-0.216302 l -0.83008,0.08672 c -0.207817,0.02124 -0.326418,0.04464 -0.41912,0.1619 -0.06713,0.08498 -0.101187,0.201512 -0.08454,0.353185 0.01743,0.170502 0.0914,0.313684 0.198901,0.388436 0.115547,0.07693 0.223156,0.0766 0.439901,0.05406 l 0.699615,-0.07311 c 0.274084,-0.02851 0.329354,-0.06931 0.319564,-0.286055 l 0.05148,-0.0055 0.0642,0.618014 -0.05018,0.0049"
       style="fill:#ffffff;fill-opacity:1;fill-rule:nonzero;stroke:none;stroke-width:0.108806" />
    <path
       id="path381"
       d="m 71.224722,90.290645 c -0.0098,0.270273 0.09564,0.405517 0.317926,0.412697 0.225225,0.0072 0.366349,-0.143188 0.377445,-0.461988 l 0.0031,-0.109679 c 0.0012,-0.0455 -0.02167,-0.06495 -0.08367,-0.06713 l -0.607355,-0.02001 z m -0.752723,-0.271148 c -0.09052,-0.0031 -0.121969,0.03904 -0.125343,0.161907 -0.0076,0.224898 0,0.319232 0.100319,0.440332 0.05646,0.06888 0.146562,0.106741 0.262225,0.110546 0.128385,0.0043 0.228272,-0.03023 0.290291,-0.116531 0.112178,-0.157221 0.104561,-0.259171 0.126211,-0.574598 z m 0.694072,0.577541 c -0.03479,0.175613 -0.08585,0.246117 -0.157658,0.321849 -0.08074,0.0828 -0.194652,0.124906 -0.312384,0.1211 -0.297145,-0.0098 -0.467974,-0.267336 -0.454803,-0.655446 l 0.02937,-0.902326 0.05018,0.0025 c -0.0012,0.211191 0.04039,0.258407 0.243506,0.264829 l 1.169663,0.03861 c 0.211191,0.0068 0.236326,-0.03233 0.256671,-0.248617 l 0.05148,0.0012 -0.02512,0.749342 c -0.01521,0.462863 -0.186056,0.695815 -0.470042,0.686456 -0.108804,-0.0031 -0.217608,-0.05018 -0.274079,-0.119032 -0.05437,-0.06583 -0.07399,-0.120232 -0.104561,-0.260593 h -0.0025"
       style="fill:#ffffff;fill-opacity:1;fill-rule:nonzero;stroke:none;stroke-width:0.108806" />
    <path
       id="path382"
       d="m 60.590279,100.92345 c -0.341762,0 -0.609535,-0.29835 -0.95118,-0.29835 -0.0064,0 -0.01195,6.2e-4 -0.01737,6.2e-4 0,-3.2e-4 0,-3.2e-4 0,-6.2e-4 -0.338388,6.2e-4 -0.60355,0.2928 -0.941063,0.29792 -0.337403,-0.005 -0.60267,-0.29715 -0.940953,-0.29792 0,3.1e-4 0,6.2e-4 0,6.2e-4 -0.0055,0 -0.01238,-6.2e-4 -0.01872,-6.2e-4 -0.0031,0 -0.0055,3.1e-4 -0.0085,3.1e-4 0,0 0,-3.1e-4 0,-3.1e-4 -0.237638,3.1e-4 -0.438706,0.1445 -0.655452,0.23198 0.02001,0.0175 0.0383,0.0341 0.05702,0.0528 l 0.01275,0.0127 c 0.181925,0.17812 0.341756,0.33621 0.469168,0.50998 0.04126,-0.008 0.08247,-0.0127 0.125017,-0.0127 0.238395,0 0.440775,0.14286 0.657078,0.23001 0.809624,-0.16963 1.577686,-0.41868 2.291665,-0.73487 -0.02722,0.003 -0.05351,0.008 -0.07943,0.008"
       style="fill:#ffffff;fill-opacity:1;fill-rule:nonzero;stroke:none;stroke-width:0.108806" />
    <path
       id="path383"
       d="m 54.613582,101.66888 c -0.358296,-0.3336 -0.645108,-0.70811 -0.857709,-1.02767 -0.274953,0.0608 -0.513349,0.27756 -0.802772,0.28181 -0.337076,-0.005 -0.602786,-0.29715 -0.941057,-0.29792 0,3.1e-4 0,6.2e-4 0,6.2e-4 -0.0068,0 -0.01182,-6.2e-4 -0.01872,-6.2e-4 -0.341652,0 -0.608981,0.29835 -0.950744,0.29835 -0.02722,0 -0.05437,-0.005 -0.08073,-0.008 0.713979,0.31619 1.482041,0.56525 2.292534,0.7352 0.216739,-0.0875 0.419119,-0.23034 0.657077,-0.23034 0.25504,0 0.467974,0.16495 0.702121,0.24906"
       style="fill:#ffffff;fill-opacity:1;fill-rule:nonzero;stroke:none;stroke-width:0.108806" />
    <path
       id="path384"
       d="m 56.022508,102.80242 0.04341,0.24437 c 0.04372,-6.1e-4 0.08629,-0.002 0.129591,-0.004 0.07268,-0.0825 0.131759,-0.16909 0.175176,-0.25155 -0.115226,0.005 -0.231647,0.009 -0.348178,0.011"
       style="fill:#ffffff;fill-opacity:1;fill-rule:nonzero;stroke:none;stroke-width:0.108806" />
    <path
       id="path385"
       d="m 55.766705,76.544579 c -7.307386,0 -13.252631,5.945682 -13.252631,13.253499 0,7.200644 5.773548,13.078332 12.93383,13.248282 0.03405,-0.0777 0.06332,-0.15886 0.08846,-0.24351 -7.067248,-0.12404 -12.777478,-5.909884 -12.777478,-13.004772 0,-7.173114 5.835573,-13.008687 13.007819,-13.008687 7.173552,0 13.00902,5.835573 13.00902,13.008687 0,6.44249 -4.709216,11.804972 -10.865659,12.830142 -0.0049,0.0884 -0.0149,0.17256 -0.03011,0.2533 6.307357,-1.01451 11.140611,-6.495154 11.140611,-13.083442 0,-7.307817 -5.94514,-13.253499 -13.253831,-13.253499"
       style="fill:#ffffff;fill-opacity:1;fill-rule:nonzero;stroke:none;stroke-width:0.108806" />
  </g>
</svg>
